; Drill file
; Format: 2.4 (00.0000)
M48
INCH
T01C0.0236
T02C0.0283
T03C0.0315
T04C0.0346
T05C0.0394
T06C0.0449
T07C0.0591
%
G05
G90
T01
X001000Y031000
X003000Y031500
X003000Y034500
X001000Y034000
X010550Y036670
X010550Y038670
X010000Y028500
X012000Y028500
X033500Y029500
X033500Y030500
X038500Y031000
X038500Y034000
T02
X001000Y030000
X002000Y030000
X005000Y032000
X006000Y032000
X007000Y032000
X008000Y028500
X009000Y028500
X013500Y029500
X014500Y029500
X015500Y029500
X016500Y029500
X017500Y029500
X018500Y029500
X019500Y029500
X020500Y029500
X021500Y029500
X022500Y029500
X023500Y029500
X024500Y029500
X025500Y029500
X026500Y029500
X027500Y029500
X028500Y029500
X030500Y029500
X030500Y030500
X030500Y031500
X030500Y032500
X030500Y033500
X030500Y034500
X030500Y035500
X028500Y035500
X027500Y035500
X026500Y035500
X025500Y035500
X024500Y035500
X023500Y035500
X022500Y035500
X021500Y035500
X020500Y035500
X019500Y035500
X018500Y035500
X017500Y035500
X016500Y035500
X015500Y035500
X014500Y035500
X013500Y035500
X013500Y037500
X012500Y037500
X015500Y037500
X016500Y037500
X020500Y037500
X021500Y037500
X022500Y037500
X023500Y037500
X025000Y037500
X028000Y037500
X030000Y037500
X031000Y037500
X038500Y037500
X038500Y036500
X033500Y028500
X032500Y028500
X025000Y032000
X020500Y032000
T03
X001000Y028500
X001000Y038500
X038500Y038500
X038500Y028500
T04
X001000Y036000
X002380Y036000
X005000Y034500
X006000Y034500
X007000Y034500
X008000Y036620
X008000Y038000
T05
X003500Y038000
X004500Y038000
X005500Y038000
T06
X035030Y037500
X036020Y037500
X037000Y037500
T07
X035000Y031000
X037000Y031000
M30
