%FSLAX34Y34*%
%MOMM*%
%LNCOPPER_BOTTOM*%
G71*
G01*
%ADD10C, 0.00*%
%ADD11C, 0.15*%
%ADD12C, 0.21*%
%ADD13C, 0.20*%
%ADD14C, 0.30*%
%ADD15C, 0.17*%
%ADD16C, 0.10*%
%ADD17C, 0.09*%
%LPD*%
G54D10*
X0Y1000000D02*
X1000000Y1000000D01*
X1000000Y700000D01*
X0Y700000D01*
X0Y1000000D01*
G54D11*
X330200Y889000D02*
X330200Y762000D01*
X736600Y762000D01*
X736600Y889000D01*
X330200Y889000D01*
G54D11*
X330200Y838200D02*
X330200Y812800D01*
X342900Y812800D01*
X342900Y838200D01*
X330200Y838200D01*
G54D12*
X469150Y838962D02*
X473483Y850518D01*
X477817Y838962D01*
G54D12*
X470883Y843295D02*
X476083Y843295D01*
G54D12*
X481861Y838962D02*
X481861Y845462D01*
G54D12*
X481861Y844018D02*
X483594Y845462D01*
X485328Y845462D01*
G54D12*
X494572Y838962D02*
X494572Y850518D01*
G54D12*
X494572Y843584D02*
X493705Y845029D01*
X491972Y845462D01*
X490239Y845029D01*
X489372Y843584D01*
X489372Y840695D01*
X490239Y839251D01*
X491972Y838962D01*
X493705Y839251D01*
X494572Y840695D01*
G54D12*
X503816Y845462D02*
X503816Y838962D01*
G54D12*
X503816Y840406D02*
X502949Y839251D01*
X501216Y838962D01*
X499483Y839251D01*
X498616Y840406D01*
X498616Y845462D01*
G54D12*
X507860Y838962D02*
X507860Y845462D01*
G54D12*
X507860Y847629D02*
X507860Y847629D01*
G54D12*
X511904Y838962D02*
X511904Y845462D01*
G54D12*
X511904Y844018D02*
X512771Y845029D01*
X514504Y845462D01*
X516237Y845029D01*
X517104Y844018D01*
X517104Y838962D01*
G54D12*
X526348Y840695D02*
X526348Y843584D01*
X525481Y845029D01*
X523748Y845462D01*
X522015Y845029D01*
X521148Y843584D01*
X521148Y840695D01*
X522015Y839251D01*
X523748Y838962D01*
X525481Y839251D01*
X526348Y840695D01*
G54D12*
X534609Y838962D02*
X534609Y850518D01*
X541542Y838962D01*
X541542Y850518D01*
G54D12*
X545586Y844740D02*
X547319Y845462D01*
X549399Y845462D01*
X550786Y844018D01*
X550786Y838962D01*
G54D12*
X550786Y841129D02*
X549919Y842573D01*
X548186Y842862D01*
X546453Y842573D01*
X545586Y841129D01*
X545933Y839684D01*
X547319Y838962D01*
X548186Y838962D01*
X548533Y838962D01*
X549919Y839684D01*
X550786Y841129D01*
G54D12*
X554830Y838962D02*
X554830Y845462D01*
G54D12*
X554830Y844018D02*
X555697Y845029D01*
X557430Y845462D01*
X559163Y845029D01*
X560030Y844018D01*
X560030Y838962D01*
G54D12*
X569274Y840695D02*
X569274Y843584D01*
X568407Y845029D01*
X566674Y845462D01*
X564941Y845029D01*
X564074Y843584D01*
X564074Y840695D01*
X564941Y839251D01*
X566674Y838962D01*
X568407Y839251D01*
X569274Y840695D01*
G54D11*
X508000Y939800D02*
X508000Y965200D01*
X609600Y965200D01*
X609600Y939800D01*
X508000Y939800D01*
G54D12*
X514183Y981839D02*
X514183Y974617D01*
X513317Y973172D01*
X511583Y972450D01*
X509850Y972450D01*
X508117Y973172D01*
X507250Y974617D01*
X507250Y981839D01*
X508117Y983283D01*
X509850Y984006D01*
X511583Y984006D01*
X513317Y983283D01*
X514183Y981839D01*
G54D12*
X518227Y984006D02*
X518227Y972450D01*
X524294Y972450D01*
G54D12*
X534405Y972450D02*
X528338Y972450D01*
X528338Y984006D01*
X534405Y984006D01*
G54D12*
X528338Y978228D02*
X534405Y978228D01*
G54D12*
X538449Y972450D02*
X538449Y984006D01*
X542782Y984006D01*
X544516Y983283D01*
X545382Y981839D01*
X545382Y974617D01*
X544516Y973172D01*
X542782Y972450D01*
X538449Y972450D01*
G54D12*
X558843Y972450D02*
X558843Y984006D01*
G54D12*
X558843Y977072D02*
X557976Y978517D01*
X556243Y978950D01*
X554510Y978517D01*
X553643Y977072D01*
X553643Y974183D01*
X554510Y972739D01*
X556243Y972450D01*
X557976Y972739D01*
X558843Y974183D01*
G54D12*
X562887Y972450D02*
X562887Y978950D01*
G54D12*
X562887Y981117D02*
X562887Y981117D01*
G54D12*
X566931Y973172D02*
X568664Y972450D01*
X570398Y972450D01*
X572131Y973172D01*
X572131Y974617D01*
X571264Y975339D01*
X567798Y976061D01*
X566931Y976783D01*
X566931Y978228D01*
X568664Y978950D01*
X570398Y978950D01*
X572131Y978228D01*
G54D12*
X576175Y978950D02*
X576175Y969561D01*
G54D12*
X576175Y974617D02*
X577042Y972739D01*
X578775Y972450D01*
X580508Y972739D01*
X581375Y974183D01*
X581375Y977072D01*
X580508Y978517D01*
X578775Y978950D01*
X577042Y978517D01*
X576175Y976783D01*
G54D12*
X585419Y972450D02*
X585419Y984006D01*
G54D12*
X589463Y978228D02*
X591196Y978950D01*
X593276Y978950D01*
X594663Y977506D01*
X594663Y972450D01*
G54D12*
X594663Y974617D02*
X593796Y976061D01*
X592063Y976350D01*
X590330Y976061D01*
X589463Y974617D01*
X589810Y973172D01*
X591196Y972450D01*
X592063Y972450D01*
X592410Y972450D01*
X593796Y973172D01*
X594663Y974617D01*
G54D12*
X598707Y978950D02*
X602174Y972450D01*
X605640Y978950D01*
G54D12*
X602174Y972450D02*
X601307Y970283D01*
X600440Y969561D01*
X599574Y969561D01*
G54D11*
X762000Y914400D02*
X787400Y914400D01*
X787400Y736600D01*
X762000Y736600D01*
X762000Y914400D01*
G54D12*
X807350Y788150D02*
X795794Y792483D01*
X807350Y796817D01*
G54D12*
X803017Y789883D02*
X803017Y795083D01*
G54D12*
X807350Y800861D02*
X795794Y800861D01*
X795794Y805194D01*
X796517Y806928D01*
X797961Y807794D01*
X805183Y807794D01*
X806628Y806928D01*
X807350Y805194D01*
X807350Y800861D01*
G54D12*
X805183Y811838D02*
X806628Y812705D01*
X807350Y814438D01*
X807350Y816171D01*
X806628Y817905D01*
X805183Y818771D01*
X801572Y818771D01*
X800850Y818771D01*
X802294Y816171D01*
X802294Y814438D01*
X801572Y812705D01*
X800128Y811838D01*
X797961Y811838D01*
X796517Y812705D01*
X795794Y814438D01*
X795794Y816171D01*
X796517Y817905D01*
X797961Y818771D01*
X801572Y818771D01*
G54D12*
X801572Y827148D02*
X801572Y825415D01*
X800850Y823682D01*
X799406Y822815D01*
X797961Y822815D01*
X796517Y823682D01*
X795794Y825415D01*
X795794Y827148D01*
X796517Y828882D01*
X797961Y829748D01*
X799406Y829748D01*
X800850Y828882D01*
X801572Y827148D01*
X802294Y828882D01*
X803739Y829748D01*
X805183Y829748D01*
X806628Y828882D01*
X807350Y827148D01*
X807350Y825415D01*
X806628Y823682D01*
X805183Y822815D01*
X803739Y822815D01*
X802294Y823682D01*
X801572Y825415D01*
G54D12*
X797961Y833792D02*
X796517Y834659D01*
X795794Y836392D01*
X795794Y838125D01*
X796517Y839859D01*
X797961Y840725D01*
X799406Y840725D01*
X800850Y839859D01*
X801572Y838125D01*
X802294Y839859D01*
X803739Y840725D01*
X805183Y840725D01*
X806628Y839859D01*
X807350Y838125D01*
X807350Y836392D01*
X806628Y834659D01*
X805183Y833792D01*
G54D12*
X797961Y844769D02*
X796517Y845636D01*
X795794Y847369D01*
X795794Y849102D01*
X796517Y850836D01*
X797961Y851702D01*
X799406Y851702D01*
X800850Y850836D01*
X801572Y849102D01*
X802294Y850836D01*
X803739Y851702D01*
X805183Y851702D01*
X806628Y850836D01*
X807350Y849102D01*
X807350Y847369D01*
X806628Y845636D01*
X805183Y844769D01*
G54D11*
X88900Y896300D02*
X215900Y896300D01*
X215900Y825500D01*
X88900Y825500D01*
X88900Y896300D01*
G54D11*
X127000Y825500D02*
X177800Y825500D01*
X177800Y725500D01*
X127000Y725500D01*
X127000Y825500D01*
G54D12*
X226039Y782044D02*
X227483Y784644D01*
X228928Y785510D01*
X231816Y785510D01*
G54D12*
X231816Y778577D02*
X220261Y778577D01*
X220261Y782910D01*
X220983Y784644D01*
X222428Y785510D01*
X223872Y785510D01*
X225316Y784644D01*
X226039Y782910D01*
X226039Y778577D01*
G54D12*
X230083Y794754D02*
X227194Y794754D01*
X225750Y793887D01*
X225316Y792154D01*
X225750Y790421D01*
X227194Y789554D01*
X230083Y789554D01*
X231528Y790421D01*
X231816Y792154D01*
X231528Y793887D01*
X230083Y794754D01*
G54D12*
X220261Y800531D02*
X231094Y800531D01*
X231816Y801398D01*
X231528Y802265D01*
G54D12*
X225316Y798798D02*
X225316Y802265D01*
G54D12*
X226039Y806309D02*
X225316Y808042D01*
X225316Y810122D01*
X226761Y811509D01*
X231816Y811509D01*
G54D12*
X229650Y811509D02*
X228205Y810642D01*
X227916Y808909D01*
X228205Y807176D01*
X229650Y806309D01*
X231094Y806656D01*
X231816Y808042D01*
X231816Y808909D01*
X231816Y809256D01*
X231094Y810642D01*
X229650Y811509D01*
G54D12*
X231816Y815553D02*
X225316Y815553D01*
G54D12*
X226761Y815553D02*
X225316Y817286D01*
X225316Y819020D01*
G54D12*
X225316Y823064D02*
X231816Y826531D01*
X225316Y829997D01*
G54D12*
X231816Y826531D02*
X233983Y825664D01*
X234705Y824797D01*
X234705Y823931D01*
G54D12*
X231816Y844325D02*
X231816Y838258D01*
X220261Y838258D01*
X220261Y844325D01*
G54D12*
X226039Y838258D02*
X226039Y844325D01*
G54D12*
X231816Y848369D02*
X225316Y848369D01*
G54D12*
X226761Y848369D02*
X225750Y849236D01*
X225316Y850969D01*
X225750Y852702D01*
X226761Y853569D01*
X231816Y853569D01*
G54D12*
X225750Y861946D02*
X225316Y860213D01*
X225750Y858480D01*
X227194Y857613D01*
X230083Y857613D01*
X231528Y858480D01*
X231816Y860213D01*
X231528Y861946D01*
G54D12*
X230083Y871190D02*
X227194Y871190D01*
X225750Y870323D01*
X225316Y868590D01*
X225750Y866857D01*
X227194Y865990D01*
X230083Y865990D01*
X231528Y866857D01*
X231816Y868590D01*
X231528Y870323D01*
X230083Y871190D01*
G54D12*
X231816Y880434D02*
X220261Y880434D01*
G54D12*
X227194Y880434D02*
X225750Y879567D01*
X225316Y877834D01*
X225750Y876101D01*
X227194Y875234D01*
X230083Y875234D01*
X231528Y876101D01*
X231816Y877834D01*
X231528Y879567D01*
X230083Y880434D01*
G54D12*
X231094Y889678D02*
X231816Y888291D01*
X231816Y886558D01*
X231094Y884825D01*
X229650Y884478D01*
X227194Y884478D01*
X225750Y885345D01*
X225316Y887078D01*
X225750Y888811D01*
X226761Y889678D01*
X228205Y889678D01*
X228205Y884478D01*
G54D12*
X231816Y893722D02*
X225316Y893722D01*
G54D12*
X226761Y893722D02*
X225316Y895455D01*
X225316Y897189D01*
G54D11*
X114300Y800100D02*
X114300Y825500D01*
X190500Y825500D01*
X190500Y800100D01*
X114300Y800100D01*
G54D12*
X113550Y832750D02*
X113550Y832750D01*
G54D13*
X965200Y838200D02*
X965200Y736600D01*
X863600Y736600D01*
X863600Y838200D01*
X965200Y838200D01*
G54D14*
G75*
G01X914375Y777375D02*
G03X914375Y777375I0J10000D01*
G01*
G54D12*
X885213Y750031D02*
X885213Y761587D01*
X889546Y761587D01*
X891280Y760865D01*
X892146Y759420D01*
X892146Y757976D01*
X891280Y756531D01*
X889546Y755809D01*
X891280Y755087D01*
X892146Y753642D01*
X892146Y752198D01*
X891280Y750754D01*
X889546Y750031D01*
X885213Y750031D01*
G54D12*
X885213Y755809D02*
X889546Y755809D01*
G54D12*
X896190Y761587D02*
X896190Y752198D01*
X897057Y750754D01*
X898790Y750031D01*
X900523Y750031D01*
X902257Y750754D01*
X903123Y752198D01*
X903123Y761587D01*
G54D12*
X910634Y750031D02*
X910634Y761587D01*
G54D12*
X907167Y761587D02*
X914100Y761587D01*
G54D12*
X921611Y750031D02*
X921611Y761587D01*
G54D12*
X918144Y761587D02*
X925077Y761587D01*
G54D12*
X936054Y759420D02*
X936054Y752198D01*
X935188Y750754D01*
X933454Y750031D01*
X931721Y750031D01*
X929988Y750754D01*
X929121Y752198D01*
X929121Y759420D01*
X929988Y760865D01*
X931721Y761587D01*
X933454Y761587D01*
X935188Y760865D01*
X936054Y759420D01*
G54D12*
X940098Y750031D02*
X940098Y761587D01*
X947031Y750031D01*
X947031Y761587D01*
G54D11*
X867300Y973000D02*
X962300Y973000D01*
X962300Y902500D01*
X867300Y902500D01*
X867300Y973000D01*
G54D11*
X889800Y902500D02*
X939800Y902500D01*
X939800Y802500D01*
X889800Y802500D01*
X889800Y902500D01*
G54D12*
X888439Y917927D02*
X892772Y929482D01*
X897106Y917927D01*
G54D12*
X890172Y922260D02*
X895372Y922260D01*
G54D12*
X901150Y917927D02*
X901150Y929482D01*
X907216Y929482D01*
G54D12*
X901150Y923704D02*
X907216Y923704D01*
G54D12*
X915478Y917927D02*
X915478Y929482D01*
X919811Y929482D01*
X921544Y928760D01*
X922411Y927316D01*
X922411Y925871D01*
X921544Y924427D01*
X919811Y923704D01*
X915478Y923704D01*
G54D12*
X931655Y919660D02*
X931655Y922549D01*
X930788Y923993D01*
X929055Y924427D01*
X927322Y923993D01*
X926455Y922549D01*
X926455Y919660D01*
X927321Y918216D01*
X929055Y917927D01*
X930788Y918216D01*
X931655Y919660D01*
G54D12*
X937432Y929482D02*
X937432Y918649D01*
X938299Y917927D01*
X939166Y918216D01*
G54D12*
X935699Y924427D02*
X939165Y924427D01*
G54D11*
X812800Y711200D02*
X812800Y736600D01*
X863600Y736600D01*
X863600Y711200D01*
X812800Y711200D01*
G54D12*
X875550Y718450D02*
X875550Y730006D01*
X879883Y730006D01*
X881617Y729283D01*
X882483Y727839D01*
X882483Y720617D01*
X881617Y719172D01*
X879883Y718450D01*
X875550Y718450D01*
G54D12*
X886527Y718450D02*
X886527Y730006D01*
X890860Y730006D01*
X892594Y729283D01*
X893460Y727839D01*
X893460Y720617D01*
X892594Y719172D01*
X890860Y718450D01*
X886527Y718450D01*
G54D12*
X897504Y720617D02*
X898371Y719172D01*
X900104Y718450D01*
X901837Y718450D01*
X903571Y719172D01*
X904437Y720617D01*
X904437Y722061D01*
X903571Y723506D01*
X901837Y724228D01*
X900104Y724228D01*
X898371Y724950D01*
X897504Y726394D01*
X897504Y727839D01*
X898371Y729283D01*
X900104Y730006D01*
X901837Y730006D01*
X903571Y729283D01*
X904437Y727839D01*
G54D12*
X917898Y720183D02*
X917898Y723072D01*
X917031Y724517D01*
X915298Y724950D01*
X913565Y724517D01*
X912698Y723072D01*
X912698Y720183D01*
X913565Y718739D01*
X915298Y718450D01*
X917031Y718739D01*
X917898Y720183D01*
G54D12*
X927142Y724950D02*
X927142Y718450D01*
G54D12*
X927142Y719894D02*
X926275Y718739D01*
X924542Y718450D01*
X922809Y718739D01*
X921942Y719894D01*
X921942Y724950D01*
G54D12*
X932919Y730006D02*
X932919Y719172D01*
X933786Y718450D01*
X934653Y718739D01*
G54D12*
X931186Y724950D02*
X934653Y724950D01*
G54D11*
X863600Y785100D02*
X838200Y785100D01*
X838200Y738900D01*
X863600Y738900D01*
X863600Y785100D01*
G54D11*
X858900Y763600D02*
X842900Y763600D01*
G54D11*
X858900Y760400D02*
X842900Y760400D01*
G54D11*
X850900Y763600D02*
X850900Y765200D01*
G54D11*
X850900Y760400D02*
X850900Y758800D01*
G54D12*
X848761Y805483D02*
X855983Y805483D01*
X857428Y804617D01*
X858150Y802883D01*
X858150Y801150D01*
X857428Y799417D01*
X855983Y798550D01*
X848761Y798550D01*
X847317Y799417D01*
X846594Y801150D01*
X846594Y802883D01*
X847317Y804617D01*
X848761Y805483D01*
G54D12*
X858150Y809527D02*
X858150Y809527D01*
G54D12*
X850928Y813571D02*
X846594Y817904D01*
X858150Y817904D01*
G54D11*
X968400Y844500D02*
X987400Y844500D01*
X987400Y806500D01*
X968400Y806500D01*
X968400Y844500D01*
G54D11*
X977900Y844600D02*
X977900Y852500D01*
G54D11*
X977900Y806500D02*
X977900Y798600D01*
G54D12*
X974728Y822800D02*
X970394Y827133D01*
X981950Y827133D01*
G54D12*
X981950Y831177D02*
X970394Y831177D01*
G54D12*
X977617Y833777D02*
X981950Y836377D01*
G54D12*
X979061Y831177D02*
X975450Y836377D01*
G54D11*
X66700Y857200D02*
X85700Y857200D01*
X85700Y819200D01*
X66700Y819200D01*
X66700Y857200D01*
G54D11*
X76200Y857300D02*
X76200Y865200D01*
G54D11*
X76200Y819200D02*
X76200Y811300D01*
G54D12*
X73028Y835500D02*
X68694Y839833D01*
X80250Y839833D01*
G54D12*
X80250Y843877D02*
X68694Y843877D01*
G54D12*
X75917Y846477D02*
X80250Y849077D01*
G54D12*
X77361Y843877D02*
X73750Y849077D01*
G54D11*
X749300Y939800D02*
X749300Y965200D01*
X800100Y965200D01*
X800100Y939800D01*
X749300Y939800D01*
G54D12*
X723150Y977506D02*
X730083Y977506D01*
G54D12*
X726617Y980394D02*
X726617Y974617D01*
G54D12*
X741060Y981839D02*
X740194Y983283D01*
X738460Y984006D01*
X736727Y984006D01*
X734994Y983283D01*
X734127Y981839D01*
X734127Y978228D01*
X734127Y977506D01*
X736727Y978950D01*
X738460Y978950D01*
X740194Y978228D01*
X741060Y976783D01*
X741060Y974617D01*
X740194Y973172D01*
X738460Y972450D01*
X736727Y972450D01*
X734994Y973172D01*
X734127Y974617D01*
X734127Y978228D01*
G54D12*
X745104Y984006D02*
X749437Y972450D01*
X753771Y984006D01*
G54D12*
X762032Y972450D02*
X762032Y978950D01*
G54D12*
X762032Y981117D02*
X762032Y981117D01*
G54D12*
X766076Y972450D02*
X766076Y978950D01*
G54D12*
X766076Y977506D02*
X766943Y978517D01*
X768676Y978950D01*
X770409Y978517D01*
X771276Y977506D01*
X771276Y972450D01*
G54D11*
X265100Y733400D02*
X293700Y733400D01*
X293700Y714400D01*
X265100Y714400D01*
X265100Y733400D01*
G54D12*
X269400Y722472D02*
X273733Y726806D01*
X273733Y715250D01*
G54D12*
X277777Y715250D02*
X277777Y726806D01*
G54D12*
X280377Y719583D02*
X282977Y715250D01*
G54D12*
X277777Y718139D02*
X282977Y721750D01*
G54D11*
X190500Y711200D02*
X190500Y736600D01*
X241300Y736600D01*
X241300Y711200D01*
X190500Y711200D01*
G54D12*
X189750Y743850D02*
X189750Y755406D01*
G54D12*
X189750Y747461D02*
X196683Y755406D01*
G54D12*
X192350Y749628D02*
X196683Y743850D01*
G54D12*
X206794Y743850D02*
X200727Y743850D01*
X200727Y755406D01*
X206794Y755406D01*
G54D12*
X200727Y749628D02*
X206794Y749628D01*
G54D12*
X210838Y755406D02*
X215171Y749628D01*
X215171Y743850D01*
G54D12*
X215171Y749628D02*
X219505Y755406D01*
G54D12*
X227766Y743850D02*
X227766Y750350D01*
G54D12*
X227766Y752517D02*
X227766Y752517D01*
G54D12*
X231810Y743850D02*
X231810Y750350D01*
G54D12*
X231810Y748906D02*
X232677Y749917D01*
X234410Y750350D01*
X236143Y749917D01*
X237010Y748906D01*
X237010Y743850D01*
G54D11*
X698500Y939800D02*
X698500Y965200D01*
X723900Y965200D01*
X723900Y939800D01*
X698500Y939800D01*
G54D12*
X697750Y972450D02*
X697750Y972450D01*
G54D11*
X622300Y939800D02*
X622300Y965200D01*
X647700Y965200D01*
X647700Y939800D01*
X622300Y939800D01*
G54D12*
X621550Y972450D02*
X621550Y972450D01*
G54D11*
X622300Y800100D02*
X622300Y825500D01*
X647700Y825500D01*
X647700Y800100D01*
X622300Y800100D01*
G54D12*
X621550Y832750D02*
X621550Y832750D01*
G54D11*
X508000Y800100D02*
X508000Y825500D01*
X533400Y825500D01*
X533400Y800100D01*
X508000Y800100D01*
G54D12*
X507250Y832750D02*
X507250Y832750D01*
G54D11*
X965200Y965200D02*
X990600Y965200D01*
X990600Y914400D01*
X965200Y914400D01*
X965200Y965200D01*
G54D12*
X989456Y876279D02*
X977900Y876279D01*
X977900Y880613D01*
X978622Y882346D01*
X980067Y883213D01*
X981511Y883213D01*
X982956Y882346D01*
X983678Y880613D01*
X983678Y876279D01*
G54D12*
X980067Y894190D02*
X987289Y894190D01*
X988733Y893323D01*
X989456Y891590D01*
X989456Y889856D01*
X988733Y888123D01*
X987289Y887256D01*
X980067Y887256D01*
X978622Y888123D01*
X977900Y889856D01*
X977900Y891590D01*
X978622Y893323D01*
X980067Y894190D01*
G54D12*
X989456Y901700D02*
X977900Y901700D01*
G54D12*
X977900Y898233D02*
X977900Y905167D01*
G54D15*
X804100Y959167D02*
X808100Y959167D01*
X808100Y955000D01*
X807100Y953333D01*
X805100Y952500D01*
X803100Y952500D01*
X801100Y953333D01*
X800100Y955000D01*
X800100Y963333D01*
X801100Y965000D01*
X803100Y965833D01*
X805100Y965833D01*
X807100Y965000D01*
X808100Y963333D01*
G54D15*
X811767Y952500D02*
X811767Y965833D01*
X819767Y952500D01*
X819767Y965833D01*
G54D15*
X823434Y952500D02*
X823434Y965833D01*
X828434Y965833D01*
X830434Y965000D01*
X831434Y963333D01*
X831434Y955000D01*
X830434Y953333D01*
X828434Y952500D01*
X823434Y952500D01*
G54D15*
X778700Y717867D02*
X782700Y717867D01*
X782700Y713700D01*
X781700Y712033D01*
X779700Y711200D01*
X777700Y711200D01*
X775700Y712033D01*
X774700Y713700D01*
X774700Y722033D01*
X775700Y723700D01*
X777700Y724533D01*
X779700Y724533D01*
X781700Y723700D01*
X782700Y722033D01*
G54D15*
X786367Y711200D02*
X786367Y724533D01*
X794367Y711200D01*
X794367Y724533D01*
G54D15*
X798034Y711200D02*
X798034Y724533D01*
X803034Y724533D01*
X805034Y723700D01*
X806034Y722033D01*
X806034Y713700D01*
X805034Y712033D01*
X803034Y711200D01*
X798034Y711200D01*
G54D15*
X664400Y730567D02*
X668400Y730567D01*
X668400Y726400D01*
X667400Y724733D01*
X665400Y723900D01*
X663400Y723900D01*
X661400Y724733D01*
X660400Y726400D01*
X660400Y734733D01*
X661400Y736400D01*
X663400Y737233D01*
X665400Y737233D01*
X667400Y736400D01*
X668400Y734733D01*
G54D15*
X672067Y723900D02*
X672067Y737233D01*
X680067Y723900D01*
X680067Y737233D01*
G54D15*
X683734Y723900D02*
X683734Y737233D01*
X688734Y737233D01*
X690734Y736400D01*
X691734Y734733D01*
X691734Y726400D01*
X690734Y724733D01*
X688734Y723900D01*
X683734Y723900D01*
G54D15*
X162133Y729933D02*
X166133Y729933D01*
X166133Y725767D01*
X165133Y724100D01*
X163133Y723267D01*
X161133Y723267D01*
X159133Y724100D01*
X158133Y725767D01*
X158133Y734100D01*
X159133Y735767D01*
X161133Y736600D01*
X163133Y736600D01*
X165133Y735767D01*
X166133Y734100D01*
G54D15*
X169800Y723267D02*
X169800Y736600D01*
X177800Y723267D01*
X177800Y736600D01*
G54D15*
X181467Y723267D02*
X181467Y736600D01*
X186467Y736600D01*
X188467Y735767D01*
X189467Y734100D01*
X189467Y725767D01*
X188467Y724100D01*
X186467Y723267D01*
X181467Y723267D01*
G54D11*
X381000Y939800D02*
X381000Y965200D01*
X431800Y965200D01*
X431800Y939800D01*
X381000Y939800D01*
G54D12*
X380250Y972450D02*
X380250Y984006D01*
G54D12*
X380250Y976061D02*
X387183Y984006D01*
G54D12*
X382850Y978228D02*
X387183Y972450D01*
G54D12*
X397294Y972450D02*
X391227Y972450D01*
X391227Y984006D01*
X397294Y984006D01*
G54D12*
X391227Y978228D02*
X397294Y978228D01*
G54D12*
X401338Y984006D02*
X405671Y978228D01*
X405671Y972450D01*
G54D12*
X405671Y978228D02*
X410005Y984006D01*
G54D12*
X423466Y974183D02*
X423466Y977072D01*
X422599Y978517D01*
X420866Y978950D01*
X419133Y978517D01*
X418266Y977072D01*
X418266Y974183D01*
X419133Y972739D01*
X420866Y972450D01*
X422599Y972739D01*
X423466Y974183D01*
G54D12*
X432710Y978950D02*
X432710Y972450D01*
G54D12*
X432710Y973894D02*
X431843Y972739D01*
X430110Y972450D01*
X428377Y972739D01*
X427510Y973894D01*
X427510Y978950D01*
G54D12*
X438487Y984006D02*
X438487Y973172D01*
X439354Y972450D01*
X440221Y972739D01*
G54D12*
X436754Y978950D02*
X440221Y978950D01*
G54D11*
X304800Y939800D02*
X304800Y965200D01*
X355600Y965200D01*
X355600Y939800D01*
X304800Y939800D01*
G54D12*
X294817Y972450D02*
X294817Y984006D01*
G54D12*
X291350Y984006D02*
X298283Y984006D01*
G54D12*
X302327Y984006D02*
X310994Y972450D01*
G54D12*
X302327Y972450D02*
X310994Y984006D01*
G54D12*
X319255Y972450D02*
X319255Y978950D01*
G54D12*
X319255Y977506D02*
X320988Y978950D01*
X322722Y978950D01*
G54D12*
X331966Y973172D02*
X330579Y972450D01*
X328846Y972450D01*
X327113Y973172D01*
X326766Y974617D01*
X326766Y977072D01*
X327633Y978517D01*
X329366Y978950D01*
X331099Y978517D01*
X331966Y977506D01*
X331966Y976061D01*
X326766Y976061D01*
G54D12*
X336010Y972450D02*
X336010Y984006D01*
G54D12*
X340054Y978228D02*
X341787Y978950D01*
X343867Y978950D01*
X345254Y977506D01*
X345254Y972450D01*
G54D12*
X345254Y974617D02*
X344387Y976061D01*
X342654Y976350D01*
X340921Y976061D01*
X340054Y974617D01*
X340401Y973172D01*
X341787Y972450D01*
X342654Y972450D01*
X343001Y972450D01*
X344387Y973172D01*
X345254Y974617D01*
G54D12*
X349298Y978950D02*
X352765Y972450D01*
X356231Y978950D01*
G54D12*
X352765Y972450D02*
X351898Y970283D01*
X351031Y969561D01*
X350165Y969561D01*
G36*
X69800Y981100D02*
X158600Y981100D01*
X158600Y987500D01*
X69800Y987500D01*
X69800Y981100D01*
G37*
G54D16*
X69800Y981100D02*
X158600Y981100D01*
X158600Y987500D01*
X69800Y987500D01*
X69800Y981100D01*
G54D11*
X69800Y987500D02*
X69800Y949500D01*
X158800Y949500D01*
X158800Y987500D01*
X69800Y987500D01*
G54D17*
X85700Y938200D02*
X85700Y945300D01*
G54D17*
X87700Y938200D02*
X87700Y945300D01*
X92000Y938200D01*
X92000Y945300D01*
G54D17*
X108400Y941800D02*
X110600Y941800D01*
X110600Y939500D01*
X110000Y938600D01*
X109000Y938200D01*
X107900Y938200D01*
X106800Y938600D01*
X106300Y939500D01*
X106300Y944000D01*
X106800Y944900D01*
X107900Y945300D01*
X109000Y945300D01*
X110000Y944900D01*
X110600Y944000D01*
G54D17*
X112600Y938200D02*
X112600Y945300D01*
X116900Y938200D01*
X116900Y945300D01*
G54D17*
X118900Y938200D02*
X118900Y945300D01*
X121600Y945300D01*
X122600Y944900D01*
X123200Y944000D01*
X123200Y939500D01*
X122600Y938600D01*
X121600Y938200D01*
X118900Y938200D01*
G54D17*
X136000Y944000D02*
X136000Y939500D01*
X135400Y938600D01*
X134400Y938200D01*
X133300Y938200D01*
X132200Y938600D01*
X131700Y939500D01*
X131700Y944000D01*
X132200Y944900D01*
X133300Y945300D01*
X134400Y945300D01*
X135400Y944900D01*
X136000Y944000D01*
G54D17*
X138000Y945300D02*
X138000Y939500D01*
X138500Y938600D01*
X139600Y938200D01*
X140700Y938200D01*
X141700Y938600D01*
X142300Y939500D01*
X142300Y945300D01*
G54D17*
X146400Y938200D02*
X146400Y945300D01*
G54D17*
X144300Y945300D02*
X148600Y945300D01*
G54D12*
X107150Y930106D02*
X114083Y930106D01*
X113217Y928661D01*
X111483Y926494D01*
X109750Y923606D01*
X108883Y921439D01*
X108883Y918550D01*
G54D12*
X122460Y924328D02*
X120727Y924328D01*
X118994Y925050D01*
X118127Y926494D01*
X118127Y927939D01*
X118994Y929383D01*
X120727Y930106D01*
X122460Y930106D01*
X124194Y929383D01*
X125060Y927939D01*
X125060Y926494D01*
X124194Y925050D01*
X122460Y924328D01*
X124194Y923606D01*
X125060Y922161D01*
X125060Y920717D01*
X124194Y919272D01*
X122460Y918550D01*
X120727Y918550D01*
X118994Y919272D01*
X118127Y920717D01*
X118127Y922161D01*
X118994Y923606D01*
X120727Y924328D01*
G54D12*
X136037Y927939D02*
X136037Y920717D01*
X135171Y919272D01*
X133437Y918550D01*
X131704Y918550D01*
X129971Y919272D01*
X129104Y920717D01*
X129104Y927939D01*
X129971Y929383D01*
X131704Y930106D01*
X133437Y930106D01*
X135171Y929383D01*
X136037Y927939D01*
G54D12*
X147014Y927939D02*
X146148Y929383D01*
X144414Y930106D01*
X142681Y930106D01*
X140948Y929383D01*
X140081Y927939D01*
X140081Y924328D01*
X140081Y923606D01*
X142681Y925050D01*
X144414Y925050D01*
X146148Y924328D01*
X147014Y922883D01*
X147014Y920717D01*
X146148Y919272D01*
X144414Y918550D01*
X142681Y918550D01*
X140948Y919272D01*
X140081Y920717D01*
X140081Y924328D01*
G54D11*
X12700Y749300D02*
X12700Y774700D01*
X63500Y774700D01*
X63500Y749300D01*
X12700Y749300D01*
G54D12*
X-750Y736206D02*
X6183Y736206D01*
G54D12*
X2717Y739094D02*
X2717Y733317D01*
G54D12*
X10227Y738372D02*
X14560Y742706D01*
X14560Y731150D01*
G54D12*
X25537Y731150D02*
X18604Y731150D01*
X18604Y731872D01*
X19471Y733317D01*
X24671Y737650D01*
X25537Y739094D01*
X25537Y740539D01*
X24671Y741983D01*
X22937Y742706D01*
X21204Y742706D01*
X19471Y741983D01*
X18604Y740539D01*
G54D12*
X29581Y742706D02*
X33914Y731150D01*
X38248Y742706D01*
G54D12*
X46509Y731150D02*
X46509Y737650D01*
G54D12*
X46509Y739817D02*
X46509Y739817D01*
G54D12*
X50553Y731150D02*
X50553Y737650D01*
G54D12*
X50553Y736206D02*
X51420Y737217D01*
X53153Y737650D01*
X54886Y737217D01*
X55753Y736206D01*
X55753Y731150D01*
G54D11*
G75*
G01X203200Y987644D02*
G03X203200Y987644I0J-39950D01*
G01*
G54D11*
X223200Y970200D02*
X223200Y960200D01*
G54D11*
X228200Y965200D02*
X218200Y965200D01*
G54D12*
X175867Y948992D02*
X180200Y953325D01*
X180200Y941770D01*
G54D12*
X191177Y951159D02*
X191177Y943936D01*
X190310Y942492D01*
X188577Y941770D01*
X186844Y941770D01*
X185110Y942492D01*
X184244Y943936D01*
X184244Y951159D01*
X185110Y952603D01*
X186844Y953325D01*
X188577Y953325D01*
X190310Y952603D01*
X191177Y951159D01*
G54D12*
X202154Y951159D02*
X202154Y943936D01*
X201287Y942492D01*
X199554Y941770D01*
X197821Y941770D01*
X196087Y942492D01*
X195221Y943936D01*
X195221Y951159D01*
X196087Y952603D01*
X197821Y953325D01*
X199554Y953325D01*
X201287Y952603D01*
X202154Y951159D01*
G54D12*
X213131Y951159D02*
X213131Y943936D01*
X212264Y942492D01*
X210531Y941770D01*
X208798Y941770D01*
X207064Y942492D01*
X206198Y943936D01*
X206198Y951159D01*
X207064Y952603D01*
X208798Y953325D01*
X210531Y953325D01*
X212264Y952603D01*
X213131Y951159D01*
G54D12*
X222375Y948270D02*
X222375Y941770D01*
G54D12*
X222375Y943214D02*
X221508Y942059D01*
X219775Y941770D01*
X218041Y942059D01*
X217175Y943214D01*
X217175Y948270D01*
G54D12*
X226419Y941770D02*
X226419Y953325D01*
X232485Y953325D01*
G54D12*
X226419Y947548D02*
X232485Y947548D01*
G54D11*
G75*
G01X2956Y914400D02*
G03X2956Y914400I39950J0D01*
G01*
G54D11*
X20400Y934400D02*
X30400Y934400D01*
G54D11*
X25400Y939400D02*
X25400Y929400D01*
G54D12*
X14906Y892622D02*
X19239Y896956D01*
X19239Y885400D01*
G54D12*
X30216Y894789D02*
X30216Y887567D01*
X29350Y886122D01*
X27616Y885400D01*
X25883Y885400D01*
X24150Y886122D01*
X23283Y887567D01*
X23283Y894789D01*
X24150Y896233D01*
X25883Y896956D01*
X27616Y896956D01*
X29350Y896233D01*
X30216Y894789D01*
G54D12*
X41193Y894789D02*
X41193Y887567D01*
X40327Y886122D01*
X38593Y885400D01*
X36860Y885400D01*
X35127Y886122D01*
X34260Y887567D01*
X34260Y894789D01*
X35127Y896233D01*
X36860Y896956D01*
X38593Y896956D01*
X40327Y896233D01*
X41193Y894789D01*
G54D12*
X52170Y894789D02*
X52170Y887567D01*
X51304Y886122D01*
X49570Y885400D01*
X47837Y885400D01*
X46104Y886122D01*
X45237Y887567D01*
X45237Y894789D01*
X46104Y896233D01*
X47837Y896956D01*
X49570Y896956D01*
X51304Y896233D01*
X52170Y894789D01*
G54D12*
X61414Y891900D02*
X61414Y885400D01*
G54D12*
X61414Y886844D02*
X60547Y885689D01*
X58814Y885400D01*
X57081Y885689D01*
X56214Y886844D01*
X56214Y891900D01*
G54D12*
X65458Y885400D02*
X65458Y896956D01*
X71525Y896956D01*
G54D12*
X65458Y891178D02*
X71525Y891178D01*
G54D11*
X34100Y840700D02*
X16700Y840700D01*
X16700Y810300D01*
X34100Y810300D01*
X34100Y840700D01*
G36*
X34000Y840600D02*
X17300Y840600D01*
X17300Y833400D01*
X34000Y833400D01*
X34000Y840600D01*
G37*
G54D16*
X34000Y840600D02*
X17300Y840600D01*
X17300Y833400D01*
X34000Y833400D01*
X34000Y840600D01*
G54D11*
X25400Y851700D02*
X25400Y840600D01*
G54D11*
X25400Y810400D02*
X25400Y799300D01*
G54D12*
X45683Y815218D02*
X41350Y819551D01*
X52905Y819551D01*
G54D12*
X52905Y823594D02*
X46405Y823594D01*
G54D12*
X47850Y823594D02*
X46839Y824461D01*
X46405Y826194D01*
X46839Y827928D01*
X47850Y828794D01*
X52905Y828794D01*
G54D12*
X52905Y838038D02*
X41350Y838038D01*
X48572Y832838D01*
X50017Y832838D01*
X50017Y839772D01*
G54D12*
X43517Y850749D02*
X50739Y850749D01*
X52183Y849882D01*
X52905Y848149D01*
X52905Y846416D01*
X52183Y844682D01*
X50739Y843816D01*
X43517Y843816D01*
X42072Y844682D01*
X41350Y846416D01*
X41350Y848149D01*
X42072Y849882D01*
X43517Y850749D01*
G54D12*
X43517Y861726D02*
X50739Y861726D01*
X52183Y860859D01*
X52905Y859126D01*
X52905Y857392D01*
X52183Y855659D01*
X50739Y854792D01*
X43517Y854792D01*
X42072Y855659D01*
X41350Y857392D01*
X41350Y859126D01*
X42072Y860859D01*
X43517Y861726D01*
G54D12*
X52905Y870970D02*
X41350Y870970D01*
X48572Y865770D01*
X50017Y865770D01*
X50017Y872703D01*
G54D15*
X38100Y724533D02*
X38100Y711200D01*
X45100Y711200D01*
G54D15*
X48767Y724533D02*
X56767Y724533D01*
X48767Y711200D01*
X56767Y711200D01*
G54D15*
X60434Y719533D02*
X65434Y724533D01*
X65434Y711200D01*
G54D15*
X69101Y711200D02*
X69101Y724533D01*
X74101Y724533D01*
X76101Y723700D01*
X77101Y722033D01*
X77101Y713700D01*
X76101Y712033D01*
X74101Y711200D01*
X69101Y711200D01*
G54D15*
X80768Y711200D02*
X80768Y724533D01*
X85768Y724533D01*
X87768Y723700D01*
X88768Y722033D01*
X88768Y720367D01*
X87768Y718700D01*
X85768Y717867D01*
X80768Y717867D01*
G54D15*
X92435Y711200D02*
X92435Y724533D01*
X100435Y711200D01*
X100435Y724533D01*
G54D15*
X115969Y711200D02*
X107969Y711200D01*
X107969Y712033D01*
X108969Y713700D01*
X114969Y718700D01*
X115969Y720367D01*
X115969Y722033D01*
X114969Y723700D01*
X112969Y724533D01*
X110969Y724533D01*
X108969Y723700D01*
X107969Y722033D01*
G54D15*
X127636Y722033D02*
X127636Y713700D01*
X126636Y712033D01*
X124636Y711200D01*
X122636Y711200D01*
X120636Y712033D01*
X119636Y713700D01*
X119636Y722033D01*
X120636Y723700D01*
X122636Y724533D01*
X124636Y724533D01*
X126636Y723700D01*
X127636Y722033D01*
G54D15*
X131303Y719533D02*
X136303Y724533D01*
X136303Y711200D01*
G54D15*
X144970Y717867D02*
X142970Y717867D01*
X140970Y718700D01*
X139970Y720367D01*
X139970Y722033D01*
X140970Y723700D01*
X142970Y724533D01*
X144970Y724533D01*
X146970Y723700D01*
X147970Y722033D01*
X147970Y720367D01*
X146970Y718700D01*
X144970Y717867D01*
X146970Y717033D01*
X147970Y715367D01*
X147970Y713700D01*
X146970Y712033D01*
X144970Y711200D01*
X142970Y711200D01*
X140970Y712033D01*
X139970Y713700D01*
X139970Y715367D01*
X140970Y717033D01*
X142970Y717867D01*
G54D15*
X825500Y977900D02*
X825500Y991233D01*
X830500Y991233D01*
X832500Y990400D01*
X833500Y988733D01*
X833500Y980400D01*
X832500Y978733D01*
X830500Y977900D01*
X825500Y977900D01*
G54D15*
X837167Y977900D02*
X837167Y991233D01*
X842167Y991233D01*
X844167Y990400D01*
X845167Y988733D01*
X845167Y980400D01*
X844167Y978733D01*
X842167Y977900D01*
X837167Y977900D01*
G54D15*
X848834Y980400D02*
X849834Y978733D01*
X851834Y977900D01*
X853834Y977900D01*
X855834Y978733D01*
X856834Y980400D01*
X856834Y982067D01*
X855834Y983733D01*
X853834Y984567D01*
X851834Y984567D01*
X849834Y985400D01*
X848834Y987067D01*
X848834Y988733D01*
X849834Y990400D01*
X851834Y991233D01*
X853834Y991233D01*
X855834Y990400D01*
X856834Y988733D01*
G54D15*
X864368Y977900D02*
X869368Y991233D01*
X874368Y977900D01*
G54D15*
X866368Y982900D02*
X872368Y982900D01*
G54D15*
X878035Y977900D02*
X878035Y991233D01*
X883035Y991233D01*
X885035Y990400D01*
X886035Y988733D01*
X886035Y980400D01*
X885035Y978733D01*
X883035Y977900D01*
X878035Y977900D01*
G54D15*
X889702Y980400D02*
X890702Y978733D01*
X892702Y977900D01*
X894702Y977900D01*
X896702Y978733D01*
X897702Y980400D01*
X897702Y984567D01*
X897702Y985400D01*
X894702Y983733D01*
X892702Y983733D01*
X890702Y984567D01*
X889702Y986233D01*
X889702Y988733D01*
X890702Y990400D01*
X892702Y991233D01*
X894702Y991233D01*
X896702Y990400D01*
X897702Y988733D01*
X897702Y984567D01*
G54D15*
X906369Y984567D02*
X904369Y984567D01*
X902369Y985400D01*
X901369Y987067D01*
X901369Y988733D01*
X902369Y990400D01*
X904369Y991233D01*
X906369Y991233D01*
X908369Y990400D01*
X909369Y988733D01*
X909369Y987067D01*
X908369Y985400D01*
X906369Y984567D01*
X908369Y983733D01*
X909369Y982067D01*
X909369Y980400D01*
X908369Y978733D01*
X906369Y977900D01*
X904369Y977900D01*
X902369Y978733D01*
X901369Y980400D01*
X901369Y982067D01*
X902369Y983733D01*
X904369Y984567D01*
G54D15*
X913036Y988733D02*
X914036Y990400D01*
X916036Y991233D01*
X918036Y991233D01*
X920036Y990400D01*
X921036Y988733D01*
X921036Y987067D01*
X920036Y985400D01*
X918036Y984567D01*
X920036Y983733D01*
X921036Y982067D01*
X921036Y980400D01*
X920036Y978733D01*
X918036Y977900D01*
X916036Y977900D01*
X914036Y978733D01*
X913036Y980400D01*
G54D15*
X924703Y988733D02*
X925703Y990400D01*
X927703Y991233D01*
X929703Y991233D01*
X931703Y990400D01*
X932703Y988733D01*
X932703Y987067D01*
X931703Y985400D01*
X929703Y984567D01*
X931703Y983733D01*
X932703Y982067D01*
X932703Y980400D01*
X931703Y978733D01*
X929703Y977900D01*
X927703Y977900D01*
X925703Y978733D01*
X924703Y980400D01*
G54D11*
X280610Y992632D02*
X255210Y992632D01*
X255210Y921032D01*
X280610Y921032D01*
X280610Y992632D01*
G54D11*
X275910Y958432D02*
X259910Y958432D01*
G54D11*
X275910Y955232D02*
X259910Y955232D01*
G54D11*
X267910Y971132D02*
X267910Y958432D01*
G54D11*
X267910Y955232D02*
X267910Y942532D01*
G54D12*
X290027Y942861D02*
X297249Y942861D01*
X298694Y941994D01*
X299416Y940261D01*
X299416Y938528D01*
X298694Y936794D01*
X297249Y935928D01*
X290027Y935928D01*
X288583Y936794D01*
X287860Y938528D01*
X287860Y940261D01*
X288583Y941994D01*
X290027Y942861D01*
G54D12*
X299416Y946905D02*
X299416Y946905D01*
G54D12*
X292194Y950949D02*
X287860Y955282D01*
X299416Y955282D01*
G54D15*
X73233Y755333D02*
X77233Y755333D01*
X77233Y751167D01*
X76233Y749500D01*
X74233Y748667D01*
X72233Y748667D01*
X70233Y749500D01*
X69233Y751167D01*
X69233Y759500D01*
X70233Y761167D01*
X72233Y762000D01*
X74233Y762000D01*
X76233Y761167D01*
X77233Y759500D01*
G54D15*
X80900Y748667D02*
X80900Y762000D01*
X88900Y748667D01*
X88900Y762000D01*
G54D15*
X92567Y748667D02*
X92567Y762000D01*
X97567Y762000D01*
X99567Y761167D01*
X100567Y759500D01*
X100567Y751167D01*
X99567Y749500D01*
X97567Y748667D01*
X92567Y748667D01*
M02*
